<svg id="visual" viewBox="0 0 900 600" width="900" height="600" xmlns="http://www.w3.org/2000/svg" xmlns:xlink="http://www.w3.org/1999/xlink" version="1.1"><path d="M0 85L82 85L82 151L164 151L164 229L245 229L245 187L327 187L327 127L409 127L409 133L491 133L491 241L573 241L573 175L655 175L655 241L736 241L736 139L818 139L818 199L900 199L900 103L900 0L900 0L818 0L818 0L736 0L736 0L655 0L655 0L573 0L573 0L491 0L491 0L409 0L409 0L327 0L327 0L245 0L245 0L164 0L164 0L82 0L82 0L0 0Z" fill="#b0235f"></path><path d="M0 241L82 241L82 283L164 283L164 301L245 301L245 307L327 307L327 223L409 223L409 223L491 223L491 307L573 307L573 277L655 277L655 325L736 325L736 271L818 271L818 259L900 259L900 151L900 101L900 197L818 197L818 137L736 137L736 239L655 239L655 173L573 173L573 239L491 239L491 131L409 131L409 125L327 125L327 185L245 185L245 227L164 227L164 149L82 149L82 83L0 83Z" fill="#b7487e"></path><path d="M0 277L82 277L82 331L164 331L164 391L245 391L245 391L327 391L327 265L409 265L409 265L491 265L491 409L573 409L573 331L655 331L655 385L736 385L736 307L818 307L818 313L900 313L900 229L900 149L900 257L818 257L818 269L736 269L736 323L655 323L655 275L573 275L573 305L491 305L491 221L409 221L409 221L327 221L327 305L245 305L245 299L164 299L164 281L82 281L82 239L0 239Z" fill="#bc6699"></path><path d="M0 505L82 505L82 523L164 523L164 487L245 487L245 481L327 481L327 487L409 487L409 541L491 541L491 541L573 541L573 559L655 559L655 505L736 505L736 475L818 475L818 493L900 493L900 487L900 227L900 311L818 311L818 305L736 305L736 383L655 383L655 329L573 329L573 407L491 407L491 263L409 263L409 263L327 263L327 389L245 389L245 389L164 389L164 329L82 329L82 275L0 275Z" fill="#c082b1"></path><path d="M0 601L82 601L82 601L164 601L164 601L245 601L245 601L327 601L327 601L409 601L409 601L491 601L491 601L573 601L573 601L655 601L655 601L736 601L736 601L818 601L818 601L900 601L900 601L900 485L900 491L818 491L818 473L736 473L736 503L655 503L655 557L573 557L573 539L491 539L491 539L409 539L409 485L327 485L327 479L245 479L245 485L164 485L164 521L82 521L82 503L0 503Z" fill="#c49cc4"></path></svg>