<svg id="visual" viewBox="0 0 1920 1080" width="1920" height="1080" xmlns="http://www.w3.org/2000/svg" xmlns:xlink="http://www.w3.org/1999/xlink" version="1.1"><path d="M0 282L175 282L175 271L349 271L349 303L524 303L524 379L698 379L698 185L873 185L873 174L1047 174L1047 336L1222 336L1222 282L1396 282L1396 347L1571 347L1571 433L1745 433L1745 249L1920 249L1920 347L1920 0L1920 0L1745 0L1745 0L1571 0L1571 0L1396 0L1396 0L1222 0L1222 0L1047 0L1047 0L873 0L873 0L698 0L698 0L524 0L524 0L349 0L349 0L175 0L175 0L0 0Z" fill="#c494bc"></path><path d="M0 368L175 368L175 390L349 390L349 401L524 401L524 563L698 563L698 325L873 325L873 239L1047 239L1047 455L1222 455L1222 357L1396 357L1396 465L1571 465L1571 509L1745 509L1745 411L1920 411L1920 444L1920 345L1920 247L1745 247L1745 431L1571 431L1571 345L1396 345L1396 280L1222 280L1222 334L1047 334L1047 172L873 172L873 183L698 183L698 377L524 377L524 301L349 301L349 269L175 269L175 280L0 280Z" fill="#c17ca9"></path><path d="M0 595L175 595L175 541L349 541L349 617L524 617L524 725L698 725L698 509L873 509L873 465L1047 465L1047 627L1222 627L1222 530L1396 530L1396 617L1571 617L1571 692L1745 692L1745 519L1920 519L1920 541L1920 442L1920 409L1745 409L1745 507L1571 507L1571 463L1396 463L1396 355L1222 355L1222 453L1047 453L1047 237L873 237L873 323L698 323L698 561L524 561L524 399L349 399L349 388L175 388L175 366L0 366Z" fill="#be6292"></path><path d="M0 854L175 854L175 973L349 973L349 919L524 919L524 941L698 941L698 951L873 951L873 876L1047 876L1047 811L1222 811L1222 854L1396 854L1396 865L1571 865L1571 973L1745 973L1745 887L1920 887L1920 822L1920 539L1920 517L1745 517L1745 690L1571 690L1571 615L1396 615L1396 528L1222 528L1222 625L1047 625L1047 463L873 463L873 507L698 507L698 723L524 723L524 615L349 615L349 539L175 539L175 593L0 593Z" fill="#ba4678"></path><path d="M0 1081L175 1081L175 1081L349 1081L349 1081L524 1081L524 1081L698 1081L698 1081L873 1081L873 1081L1047 1081L1047 1081L1222 1081L1222 1081L1396 1081L1396 1081L1571 1081L1571 1081L1745 1081L1745 1081L1920 1081L1920 1081L1920 820L1920 885L1745 885L1745 971L1571 971L1571 863L1396 863L1396 852L1222 852L1222 809L1047 809L1047 874L873 874L873 949L698 949L698 939L524 939L524 917L349 917L349 971L175 971L175 852L0 852Z" fill="#b4245c"></path></svg>