<svg id="visual" viewBox="0 0 900 600" width="900" height="600" xmlns="http://www.w3.org/2000/svg" xmlns:xlink="http://www.w3.org/1999/xlink" version="1.1"><path d="M0 109L82 109L82 67L164 67L164 79L245 79L245 55L327 55L327 115L409 115L409 121L491 121L491 121L573 121L573 49L655 49L655 91L736 91L736 43L818 43L818 61L900 61L900 97L900 0L900 0L818 0L818 0L736 0L736 0L655 0L655 0L573 0L573 0L491 0L491 0L409 0L409 0L327 0L327 0L245 0L245 0L164 0L164 0L82 0L82 0L0 0Z" fill="#c493bb"></path><path d="M0 175L82 175L82 109L164 109L164 151L245 151L245 139L327 139L327 199L409 199L409 187L491 187L491 163L573 163L573 145L655 145L655 193L736 193L736 79L818 79L818 139L900 139L900 139L900 95L900 59L818 59L818 41L736 41L736 89L655 89L655 47L573 47L573 119L491 119L491 119L409 119L409 113L327 113L327 53L245 53L245 77L164 77L164 65L82 65L82 107L0 107Z" fill="#c07ba8"></path><path d="M0 253L82 253L82 337L164 337L164 313L245 313L245 331L327 331L327 313L409 313L409 421L491 421L491 289L573 289L573 397L655 397L655 421L736 421L736 283L818 283L818 313L900 313L900 343L900 137L900 137L818 137L818 77L736 77L736 191L655 191L655 143L573 143L573 161L491 161L491 185L409 185L409 197L327 197L327 137L245 137L245 149L164 149L164 107L82 107L82 173L0 173Z" fill="#bc6192"></path><path d="M0 361L82 361L82 505L164 505L164 439L245 439L245 391L327 391L327 445L409 445L409 469L491 469L491 355L573 355L573 457L655 457L655 511L736 511L736 373L818 373L818 421L900 421L900 457L900 341L900 311L818 311L818 281L736 281L736 419L655 419L655 395L573 395L573 287L491 287L491 419L409 419L409 311L327 311L327 329L245 329L245 311L164 311L164 335L82 335L82 251L0 251Z" fill="#b7457a"></path><path d="M0 601L82 601L82 601L164 601L164 601L245 601L245 601L327 601L327 601L409 601L409 601L491 601L491 601L573 601L573 601L655 601L655 601L736 601L736 601L818 601L818 601L900 601L900 601L900 455L900 419L818 419L818 371L736 371L736 509L655 509L655 455L573 455L573 353L491 353L491 467L409 467L409 443L327 443L327 389L245 389L245 437L164 437L164 503L82 503L82 359L0 359Z" fill="#b0235f"></path></svg>